<svg width="129" height="16" fill="none" xmlns="http://www.w3.org/2000/svg"><path d="m10.42 15.785-1.012-2.76H2.743l-1.084 2.76H0L6.233 0l5.87 15.785h-1.684ZM6.16 3.958l-2.96 7.77h5.727L6.16 3.959ZM20.691 15.785V.553h1.61v13.886h4.741v1.346h-6.35ZM35.916 15.785V.553h1.61v13.886h4.741v1.346h-6.351ZM51.147 15.785V.553H58.7v1.414h-5.943v3.621H56.8v1.366h-4.043v7.506h6.208v1.32h-7.819v.005ZM75.47 16c-4.305-.024-8.157-2.398-8.157-7.486 0-4.775 3.754-8.201 8.731-8.201.265 0 .53 0 .795.024v1.415c-.29-.025-.579-.05-.864-.05-3.897.025-7.097 2.447-7.097 6.812 0 4.316 3.44 6.165 6.542 6.165.216 0 .432 0 .648-.024V6.283h-3.297V5.035h4.81v10.77c-.693.122-1.415.195-2.112.195ZM94.693 12.115l2.43 3.67H95.34l-1.998-3.093c-.648.264-1.59.48-2.551.48a7.61 7.61 0 0 1-1.468-.143v2.76h-1.59V.553h2.838c4.98 0 6.93 2.926 6.93 6.522.003 1.8-.67 3.695-2.81 5.04ZM90.89 1.869h-1.566v9.787c.53.166.962.24 1.541.24.603 0 1.325-.098 1.757-.314l-1.37-2.04 1.227-.768 1.443 2.183a4.263 4.263 0 0 0 2.091-3.695c0-3.88-2.547-5.393-5.124-5.393ZM106.891 15.785V.553h1.589v15.232h-1.589ZM127.316 15.785l-1.011-2.76h-6.665l-1.084 2.76h-1.66L123.129 0l5.87 15.785h-1.683Zm-4.26-11.827-2.96 7.77h5.728l-2.768-7.77Z" fill="#0F303F"/></svg>