<svg aria-hidden="true" style="position: absolute; width: 0; height: 0; overflow: hidden;" version="1.1" xmlns="http://www.w3.org/2000/svg" xmlns:xlink="http://www.w3.org/1999/xlink">
<defs>
<symbol id="icon-basket" viewBox="0 0 27 32">
<path stroke-linejoin="miter" stroke-linecap="butt" stroke-miterlimit="4" stroke-width="1.6842" d="M0.842 10.947h25.263v20.211h-25.263zM21.895 10.105c0-4.651-3.77-8.421-8.421-8.421s-8.421 3.77-8.421 8.421v0"></path>
</symbol>
<symbol id="icon-burger" viewBox="0 0 71 32">
<path stroke-linejoin="miter" stroke-linecap="butt" stroke-miterlimit="4" stroke-width="3.5556" d="M0 3.556h71.111M35.556 28.444h35.556"></path>
</symbol>
<symbol id="icon-favorites" viewBox="0 0 37 32">
<path stroke-linejoin="miter" stroke-linecap="round" stroke-miterlimit="4" stroke-width="1.7778" d="M4.121 4.121c1.448-1.448 3.448-2.343 5.657-2.343s4.209 0.895 5.657 2.343l3.232 3.232 3.232-3.232c1.448-1.448 3.448-2.343 5.657-2.343 4.418 0 8 3.582 8 8 0 2.209-0.895 4.209-2.343 5.657l-14.546 14.546-14.546-14.546c-1.448-1.448-2.343-3.448-2.343-5.657s0.895-4.209 2.343-5.657v0z"></path>
</symbol>
<symbol id="icon-logo" viewBox="0 0 258 32">
<path d="M20.84 31.57l-2.024-5.52h-13.33l-2.168 5.52h-3.318l12.466-31.57 11.74 31.57h-3.368zM12.32 7.916l-5.92 15.54h11.454l-5.534-15.538zM41.382 31.57v-30.464h3.22v27.772h9.482v2.692h-12.7zM71.832 31.57v-30.464h3.22v27.772h9.482v2.692h-12.702zM102.294 31.57v-30.464h15.106v2.828h-11.886v7.242h8.086v2.732h-8.086v15.012h12.416v2.64l-15.638 0.010zM150.94 32c-8.61-0.048-16.314-4.796-16.314-14.972 0-9.55 7.508-16.402 17.462-16.402 0.53 0 1.060 0 1.59 0.048v2.83c-0.58-0.050-1.158-0.1-1.728-0.1-7.794 0.050-14.194 4.894-14.194 13.624 0 8.632 6.88 12.33 13.084 12.33 0.432 0 0.864 0 1.296-0.048v-16.744h-6.594v-2.496h9.62v21.54c-1.386 0.244-2.83 0.39-4.224 0.39zM189.386 24.23l4.86 7.34h-3.566l-3.996-6.186c-1.296 0.528-3.18 0.96-5.102 0.96-1.039-0-2.053-0.104-3.034-0.302l0.098 0.017v5.52h-3.18v-30.472h5.676c9.96 0 13.86 5.852 13.86 13.044 0.006 3.6-1.34 7.39-5.62 10.080zM181.78 3.738h-3.132v19.574c1.060 0.332 1.924 0.48 3.082 0.48 1.206 0 2.65-0.196 3.514-0.628l-2.74-4.080 2.454-1.536 2.886 4.366c2.521-1.512 4.182-4.23 4.182-7.336 0-0.019-0-0.038-0-0.056v0.003c0-7.76-5.094-10.786-10.248-10.786zM213.782 31.57v-30.464h3.178v30.464h-3.178zM254.632 31.57l-2.022-5.52h-13.33l-2.168 5.52h-3.32l12.466-31.57 11.74 31.57h-3.366zM246.112 7.916l-5.92 15.54h11.456l-5.536-15.54z"></path>
</symbol>
<symbol id="icon-personal-cabinet" viewBox="0 0 28 32">
<path d="M26.539 30.222h-24.633l0.008-0.068c0.898-5.991 6.067-10.585 12.308-10.585s11.41 4.594 12.316 10.654zM28.334 30.222c-0.911-7.054-6.881-12.448-14.11-12.448-3.929 0-7.486 1.593-10.059 4.169l-0 0c-2.574 2.574-4.165 6.129-4.165 10.056 0 0 0 0 0 0.001v-0h28.444c-0-0.627-0.041-1.244-0.12-1.849l0.008 0.072zM14.222 12.444v0c-2.946 0-5.333-2.388-5.333-5.333s2.388-5.333 5.333-5.333v0c2.946 0 5.333 2.388 5.333 5.333s-2.388 5.333-5.333 5.333zM14.222 14.222c3.927 0 7.111-3.184 7.111-7.111s-3.184-7.111-7.111-7.111v0c-3.927 0-7.111 3.184-7.111 7.111s3.184 7.111 7.111 7.111v0z"></path>
</symbol>
<symbol id="icon-left" viewBox="0 0 15 32">
<path stroke-linejoin="miter" stroke-linecap="butt" stroke-miterlimit="4" stroke-width="1.3913" d="M14.531 0.618l-12.369 15.073 12.369 15.072"></path>
</symbol>
<symbol id="icon-right" viewBox="0 0 15 32">
<path stroke-linejoin="miter" stroke-linecap="butt" stroke-miterlimit="4" stroke-width="1.3913" d="M0.774 0.618l12.369 15.073-12.37 15.071"></path>
</symbol>
</defs>
</svg>
